<?xml version="1.0" standalone="no"?>
<!DOCTYPE svg PUBLIC "-//W3C//DTD SVG 20010904//EN"
 "http://www.w3.org/TR/2001/REC-SVG-20010904/DTD/svg10.dtd">
<svg version="1.0" xmlns="http://www.w3.org/2000/svg"
 width="1254.000000pt" height="1254.000000pt" viewBox="0 0 1254.000000 1254.000000"
 preserveAspectRatio="xMidYMid meet">

<g transform="translate(0.000000,1254.000000) scale(0.100000,-0.100000)"
fill="#000000" stroke="none">
<path d="M1114 12105 c-91 -16 -134 -30 -209 -68 -249 -124 -424 -349 -480
-618 -13 -62 -15 -697 -15 -5157 0 -5005 0 -5088 20 -5168 23 -97 55 -172 116
-274 70 -116 91 -142 144 -180 27 -19 75 -53 107 -76 110 -78 228 -125 361
-144 55 -8 1523 -10 5162 -8 l5085 3 73 23 c281 87 510 295 600 546 68 187 63
-289 60 5316 l-3 5075 -22 77 c-48 169 -98 263 -201 379 -70 79 -90 95 -203
163 -97 59 -174 90 -271 110 -70 15 -550 16 -5165 15 -4120 -1 -5102 -3 -5159
-14z m760 -733 c83 -39 149 -105 189 -190 29 -60 32 -76 32 -157 0 -80 -4 -97
-32 -157 -42 -89 -101 -151 -182 -191 -60 -29 -74 -32 -161 -32 -87 0 -101 3
-161 32 -228 112 -285 415 -116 609 38 43 130 98 193 113 70 18 165 7 238 -27z
m1043 -2 c114 -57 190 -157 214 -284 29 -161 -64 -337 -218 -413 -51 -25 -69
-28 -153 -28 -88 0 -101 3 -162 33 -83 40 -158 119 -189 200 -33 81 -33 225
-1 296 91 201 320 289 509 196z m958 25 c111 -29 204 -108 254 -214 23 -49 26
-69 26 -156 0 -89 -3 -107 -28 -160 -37 -79 -114 -156 -191 -192 -53 -24 -73
-28 -151 -28 -78 0 -98 4 -150 28 -79 37 -156 114 -192 191 -25 54 -28 72 -28
161 0 87 3 107 26 156 49 103 131 176 239 210 69 22 119 23 195 4z m7346
-1363 c167 -56 292 -185 352 -362 l22 -65 3 -3980 c2 -3451 0 -3991 -12 -4065
-38 -216 -193 -390 -406 -454 -51 -15 -426 -17 -4910 -16 -3987 0 -4864 3
-4905 14 -185 49 -333 189 -390 368 l-25 79 0 4038 c0 4001 0 4040 20 4103 40
129 142 248 263 308 129 63 -268 59 5057 57 l4865 -2 66 -23z"/>
<path d="M5970 8849 c-115 -19 -235 -101 -293 -200 -61 -104 -57 94 -57 -2866
0 -2702 0 -2704 21 -2765 22 -66 72 -150 110 -185 46 -42 139 -90 196 -102 44
-9 441 -11 1643 -9 l1585 3 68 33 c89 44 160 114 200 199 l32 68 0 285 c0 275
-1 287 -23 342 -32 80 -105 156 -188 199 l-68 34 -1135 5 c-1113 5 -1137 5
-1170 25 -19 11 -43 33 -55 48 l-21 28 -5 2272 -5 2272 -23 56 c-58 145 -169
234 -322 258 -77 13 -412 12 -490 0z"/>
<path d="M2503 6246 c-180 -59 -278 -255 -213 -428 28 -75 63 -113 202 -218
179 -136 1134 -884 1166 -915 15 -14 -7 -32 -822 -665 -309 -240 -480 -380
-503 -410 -46 -63 -66 -137 -61 -224 8 -118 78 -220 187 -273 48 -24 68 -28
141 -28 56 0 103 6 137 18 58 20 75 33 578 427 193 151 505 394 695 541 190
147 367 288 393 313 120 116 148 308 68 471 -38 76 -59 96 -321 301 -338 264
-628 492 -985 774 -184 145 -357 274 -392 291 -51 26 -77 32 -145 35 -53 3
-98 -1 -125 -10z"/>
</g>
</svg>
